<svg width="80" height="80" viewBox="0 0 80 80" fill="none" xmlns="http://www.w3.org/2000/svg">
<circle cx="40" cy="40" r="40" fill="url(#paint0_linear_23_5)"/>
<circle cx="40" cy="40" r="36" fill="#161513"/>
<path d="M39.2129 39.2788V51.957C38.7148 52.5576 37.9458 53.2095 36.9058 53.9126C35.8657 54.6011 34.5254 55.1943 32.8848 55.6924C31.2441 56.1904 29.2593 56.4395 26.9302 56.4395C24.8647 56.4395 22.9824 56.1025 21.2832 55.4287C19.584 54.7402 18.1191 53.7368 16.8887 52.4185C15.6729 51.1001 14.7354 49.4888 14.0762 47.5845C13.417 45.6655 13.0874 43.4756 13.0874 41.0146V39.0151C13.0874 36.5542 13.4023 34.3643 14.0322 32.4453C14.6768 30.5264 15.5923 28.9077 16.7788 27.5894C17.9653 26.271 19.3789 25.2676 21.0195 24.5791C22.6602 23.8906 24.4839 23.5464 26.4907 23.5464C29.2739 23.5464 31.5591 24.0005 33.3462 24.9087C35.1333 25.8022 36.4956 27.0474 37.4331 28.644C38.3853 30.2261 38.9712 32.0425 39.1909 34.0933H32.7969C32.6357 33.0093 32.3281 32.0645 31.874 31.2588C31.4199 30.4531 30.7681 29.8232 29.9185 29.3691C29.0835 28.915 27.9995 28.688 26.6665 28.688C25.5679 28.688 24.5864 28.915 23.7222 29.3691C22.8726 29.8086 22.1548 30.4604 21.5688 31.3247C20.9829 32.189 20.5361 33.2583 20.2285 34.5327C19.9209 35.8071 19.7671 37.2866 19.7671 38.9712V41.0146C19.7671 42.6846 19.9282 44.1641 20.2505 45.4531C20.5728 46.7275 21.0488 47.8042 21.6787 48.6831C22.3232 49.5474 23.1143 50.1992 24.0518 50.6387C24.9893 51.0781 26.0806 51.2979 27.3257 51.2979C28.3657 51.2979 29.23 51.21 29.9185 51.0342C30.6216 50.8584 31.1855 50.646 31.6104 50.397C32.0498 50.1333 32.3867 49.8843 32.6211 49.6499V43.981H26.6006V39.2788H39.2129ZM61.1855 47.6284C61.1855 47.0571 61.0977 46.5444 60.9219 46.0903C60.7607 45.6216 60.4531 45.1968 59.999 44.8159C59.5449 44.4204 58.9077 44.0322 58.0874 43.6514C57.2671 43.2705 56.2051 42.875 54.9014 42.4648C53.4512 41.9961 52.0742 41.4688 50.7705 40.8828C49.4814 40.2969 48.3389 39.6157 47.3428 38.8394C46.3613 38.0483 45.585 37.1328 45.0137 36.0928C44.457 35.0527 44.1787 33.8442 44.1787 32.4673C44.1787 31.1343 44.4717 29.9258 45.0576 28.8418C45.6436 27.7432 46.4639 26.8057 47.5186 26.0293C48.5732 25.2383 49.8184 24.6304 51.2539 24.2056C52.7041 23.7808 54.2935 23.5684 56.022 23.5684C58.3804 23.5684 60.4385 23.9932 62.1963 24.8428C63.9541 25.6924 65.3164 26.8569 66.2832 28.3364C67.2646 29.8159 67.7554 31.5078 67.7554 33.4121H61.2075C61.2075 32.4746 61.0098 31.6543 60.6143 30.9512C60.2334 30.2334 59.6475 29.6694 58.8564 29.2593C58.0801 28.8491 57.0986 28.644 55.9121 28.644C54.7695 28.644 53.8174 28.8198 53.0557 29.1714C52.2939 29.5083 51.7227 29.9697 51.3418 30.5557C50.9609 31.127 50.7705 31.7715 50.7705 32.4893C50.7705 33.0312 50.9023 33.522 51.166 33.9614C51.4443 34.4009 51.8545 34.811 52.3965 35.1919C52.9385 35.5728 53.605 35.9316 54.396 36.2686C55.187 36.6055 56.1025 36.9351 57.1426 37.2573C58.8857 37.7847 60.4165 38.3779 61.7349 39.0371C63.0679 39.6963 64.1812 40.436 65.0747 41.2563C65.9683 42.0767 66.6421 43.0068 67.0962 44.0469C67.5503 45.0869 67.7773 46.2661 67.7773 47.5845C67.7773 48.9761 67.5063 50.2212 66.9644 51.3198C66.4224 52.4185 65.6387 53.3486 64.6133 54.1104C63.5879 54.8721 62.3647 55.4507 60.9438 55.8462C59.5229 56.2417 57.9336 56.4395 56.1758 56.4395C54.5938 56.4395 53.0337 56.2344 51.4956 55.8242C49.9575 55.3994 48.5586 54.7622 47.2988 53.9126C46.0537 53.063 45.0576 51.979 44.3105 50.6606C43.5635 49.3423 43.1899 47.7822 43.1899 45.9805H49.8037C49.8037 46.9766 49.9575 47.8188 50.2651 48.5073C50.5728 49.1958 51.0049 49.7524 51.5615 50.1772C52.1328 50.6021 52.8066 50.9097 53.583 51.1001C54.374 51.2905 55.2383 51.3857 56.1758 51.3857C57.3184 51.3857 58.2559 51.2246 58.9883 50.9023C59.7354 50.5801 60.2847 50.1333 60.6362 49.562C61.0024 48.9907 61.1855 48.3462 61.1855 47.6284Z" fill="white"/>
<defs>
<linearGradient id="paint0_linear_23_5" x1="10.5" y1="7" x2="71" y2="67" gradientUnits="userSpaceOnUse">
<stop stop-color="#FFA84B"/>
<stop offset="0.28" stop-color="#FF8A56"/>
<stop offset="0.865" stop-color="#FF5E69"/>
</linearGradient>
</defs>
</svg>
