<?xml version="1.0" standalone="no"?><svg xmlns="http://www.w3.org/2000/svg" viewBox="0 0 1440 320"><path fill="#0099ff" fill-opacity="1" d="M0,224L20,202.7C40,181,80,139,120,144C160,149,200,203,240,224C280,245,320,235,360,197.3C400,160,440,96,480,96C520,96,560,160,600,197.3C640,235,680,245,720,213.3C760,181,800,107,840,112C880,117,920,203,960,240C1000,277,1040,267,1080,240C1120,213,1160,171,1200,165.3C1240,160,1280,192,1320,186.7C1360,181,1400,139,1420,117.3L1440,96L1440,320L1420,320C1400,320,1360,320,1320,320C1280,320,1240,320,1200,320C1160,320,1120,320,1080,320C1040,320,1000,320,960,320C920,320,880,320,840,320C800,320,760,320,720,320C680,320,640,320,600,320C560,320,520,320,480,320C440,320,400,320,360,320C320,320,280,320,240,320C200,320,160,320,120,320C80,320,40,320,20,320L0,320Z"></path></svg>