<?xml version="1.0" standalone="no"?><svg xmlns="http://www.w3.org/2000/svg" viewBox="0 0 1440 320"><path fill="#0099ff" fill-opacity="1" d="M0,128L40,122.7C80,117,160,107,240,117.3C320,128,400,160,480,149.3C560,139,640,85,720,74.7C800,64,880,96,960,112C1040,128,1120,128,1200,122.7C1280,117,1360,107,1400,101.3L1440,96L1440,320L1400,320C1360,320,1280,320,1200,320C1120,320,1040,320,960,320C880,320,800,320,720,320C640,320,560,320,480,320C400,320,320,320,240,320C160,320,80,320,40,320L0,320Z"></path></svg>