<?xml version="1.0" standalone="no"?><svg xmlns="http://www.w3.org/2000/svg" viewBox="0 0 1440 320"><path fill="#0099ff" fill-opacity="1" d="M0,192L26.7,192C53.3,192,107,192,160,186.7C213.3,181,267,171,320,170.7C373.3,171,427,181,480,202.7C533.3,224,587,256,640,240C693.3,224,747,160,800,117.3C853.3,75,907,53,960,53.3C1013.3,53,1067,75,1120,90.7C1173.3,107,1227,117,1280,154.7C1333.3,192,1387,256,1413,288L1440,320L1440,320L1413.3,320C1386.7,320,1333,320,1280,320C1226.7,320,1173,320,1120,320C1066.7,320,1013,320,960,320C906.7,320,853,320,800,320C746.7,320,693,320,640,320C586.7,320,533,320,480,320C426.7,320,373,320,320,320C266.7,320,213,320,160,320C106.7,320,53,320,27,320L0,320Z"></path></svg>