<svg width="448" height="407" viewBox="0 0 448 407" fill="none" xmlns="http://www.w3.org/2000/svg">
<g clip-path="url(#clip0_17_3)">
<path d="M26.417 243.5C23.917 242.667 19.817 239.4 23.417 233" stroke="white" stroke-opacity="0.06"/>
<line x1="23.5452" y1="232.792" x2="107.545" y2="48.7924" stroke="white" stroke-opacity="0.06"/>
<line x1="28.2289" y1="244.555" x2="230.229" y2="348.555" stroke="white" stroke-opacity="0.06"/>
<line x1="26.2236" y1="243.553" x2="28.2236" y2="244.553" stroke="white" stroke-opacity="0.06"/>
<path d="M38.417 238.5C35.917 237.667 31.817 234.4 35.417 228" stroke="white" stroke-opacity="0.06"/>
<line x1="35.5452" y1="227.792" x2="119.545" y2="43.7924" stroke="white" stroke-opacity="0.06"/>
<line x1="40.2289" y1="239.555" x2="242.229" y2="343.555" stroke="white" stroke-opacity="0.06"/>
<line x1="34.5528" y1="229.776" x2="35.5528" y2="227.776" stroke="white" stroke-opacity="0.03"/>
<line x1="38.2236" y1="238.553" x2="40.2236" y2="239.553" stroke="white" stroke-opacity="0.06"/>
<path d="M51.417 234.5C48.917 233.667 44.817 230.4 48.417 224" stroke="white" stroke-opacity="0.06"/>
<line x1="48.5452" y1="223.792" x2="132.545" y2="39.7924" stroke="white" stroke-opacity="0.06"/>
<line x1="53.2289" y1="235.555" x2="255.229" y2="339.555" stroke="white" stroke-opacity="0.06"/>
<line x1="51.2236" y1="234.553" x2="53.2236" y2="235.553" stroke="white" stroke-opacity="0.06"/>
<path d="M64.417 230.5C61.917 229.667 57.817 226.4 61.417 220" stroke="white" stroke-opacity="0.06"/>
<line x1="61.5452" y1="219.792" x2="145.545" y2="35.7924" stroke="white" stroke-opacity="0.06"/>
<line x1="66.2289" y1="231.555" x2="268.229" y2="335.555" stroke="white" stroke-opacity="0.06"/>
<line x1="64.2236" y1="230.553" x2="66.2236" y2="231.553" stroke="white" stroke-opacity="0.06"/>
<path d="M76.417 227.5C73.917 226.667 69.817 223.4 73.417 217" stroke="white" stroke-opacity="0.06"/>
<line x1="73.5452" y1="216.792" x2="157.545" y2="32.7924" stroke="white" stroke-opacity="0.06"/>
<line x1="78.2289" y1="228.555" x2="280.229" y2="332.555" stroke="white" stroke-opacity="0.06"/>
<line x1="76.2236" y1="227.553" x2="78.2236" y2="228.553" stroke="white" stroke-opacity="0.06"/>
<path d="M88.417 223.5C85.917 222.667 81.817 219.4 85.417 213" stroke="white" stroke-opacity="0.06"/>
<line x1="85.5452" y1="212.792" x2="169.545" y2="28.7924" stroke="white" stroke-opacity="0.06"/>
<line x1="90.2289" y1="224.555" x2="292.229" y2="328.555" stroke="white" stroke-opacity="0.06"/>
<line x1="88.2236" y1="223.553" x2="90.2236" y2="224.553" stroke="white" stroke-opacity="0.06"/>
<path d="M100.417 218.5C97.917 217.667 93.817 214.4 97.417 208" stroke="white" stroke-opacity="0.06"/>
<line x1="97.5452" y1="207.792" x2="181.545" y2="23.7924" stroke="white" stroke-opacity="0.06"/>
<line x1="102.229" y1="219.555" x2="304.229" y2="323.555" stroke="white" stroke-opacity="0.06"/>
<line x1="100.224" y1="218.553" x2="102.224" y2="219.553" stroke="white" stroke-opacity="0.06"/>
<path d="M113.417 214.5C110.917 213.667 106.817 210.4 110.417 204" stroke="white" stroke-opacity="0.06"/>
<line x1="110.545" y1="203.792" x2="194.545" y2="19.7924" stroke="white" stroke-opacity="0.06"/>
<line x1="115.229" y1="215.555" x2="317.229" y2="319.555" stroke="white" stroke-opacity="0.06"/>
<line x1="113.224" y1="214.553" x2="115.224" y2="215.553" stroke="white" stroke-opacity="0.06"/>
<path d="M126.417 210.5C123.917 209.667 119.817 206.4 123.417 200" stroke="white" stroke-opacity="0.06"/>
<line x1="123.545" y1="199.792" x2="207.545" y2="15.7924" stroke="white" stroke-opacity="0.06"/>
<line x1="128.229" y1="211.555" x2="330.229" y2="315.555" stroke="white" stroke-opacity="0.06"/>
<line x1="126.224" y1="210.553" x2="128.224" y2="211.553" stroke="white" stroke-opacity="0.06"/>
<path d="M138.417 207.5C135.917 206.667 131.817 203.4 135.417 197" stroke="white" stroke-opacity="0.06"/>
<line x1="135.545" y1="196.792" x2="219.545" y2="12.7924" stroke="white" stroke-opacity="0.06"/>
<line x1="140.229" y1="208.555" x2="342.229" y2="312.555" stroke="white" stroke-opacity="0.06"/>
<line x1="138.224" y1="207.553" x2="140.224" y2="208.553" stroke="white" stroke-opacity="0.06"/>
<path d="M151.417 202.5C148.917 201.667 144.817 198.4 148.417 192" stroke="white" stroke-opacity="0.06"/>
<line x1="148.545" y1="191.792" x2="232.545" y2="7.79235" stroke="white" stroke-opacity="0.06"/>
<line x1="153.229" y1="203.555" x2="355.229" y2="307.555" stroke="white" stroke-opacity="0.06"/>
<line x1="151.224" y1="202.553" x2="153.224" y2="203.553" stroke="white" stroke-opacity="0.06"/>
<path d="M163.417 197.5C160.917 196.667 156.817 193.4 160.417 187" stroke="white" stroke-opacity="0.06"/>
<line x1="160.545" y1="186.792" x2="244.545" y2="2.79235" stroke="white" stroke-opacity="0.06"/>
<line x1="165.229" y1="198.555" x2="367.229" y2="302.555" stroke="white" stroke-opacity="0.06"/>
<line x1="163.224" y1="197.553" x2="165.224" y2="198.553" stroke="white" stroke-opacity="0.06"/>
<path d="M176.417 193.5C173.917 192.667 169.817 189.4 173.417 183" stroke="white" stroke-opacity="0.06"/>
<line x1="173.545" y1="182.792" x2="257.545" y2="-1.20765" stroke="white" stroke-opacity="0.06"/>
<line x1="178.229" y1="194.555" x2="380.229" y2="298.555" stroke="white" stroke-opacity="0.06"/>
<line x1="176.224" y1="193.553" x2="178.224" y2="194.553" stroke="white" stroke-opacity="0.06"/>
<path d="M189.417 189.5C186.917 188.667 182.817 185.4 186.417 179" stroke="white" stroke-opacity="0.06"/>
<line x1="186.545" y1="178.792" x2="270.545" y2="-5.20765" stroke="white" stroke-opacity="0.06"/>
<line x1="191.229" y1="190.555" x2="393.229" y2="294.555" stroke="white" stroke-opacity="0.06"/>
<line x1="189.224" y1="189.553" x2="191.224" y2="190.553" stroke="white" stroke-opacity="0.06"/>
<path d="M201.417 186.5C198.917 185.667 194.817 182.4 198.417 176" stroke="white" stroke-opacity="0.06"/>
<line x1="198.545" y1="175.792" x2="282.545" y2="-8.20765" stroke="white" stroke-opacity="0.06"/>
<line x1="203.229" y1="187.555" x2="405.229" y2="291.555" stroke="white" stroke-opacity="0.06"/>
<line x1="201.224" y1="186.553" x2="203.224" y2="187.553" stroke="white" stroke-opacity="0.06"/>
<path d="M214.417 182.5C211.917 181.667 207.817 178.4 211.417 172" stroke="white" stroke-opacity="0.06"/>
<line x1="211.545" y1="171.792" x2="295.545" y2="-12.2076" stroke="white" stroke-opacity="0.06"/>
<line x1="216.229" y1="183.555" x2="418.229" y2="287.555" stroke="white" stroke-opacity="0.06"/>
<line x1="214.224" y1="182.553" x2="216.224" y2="183.553" stroke="white" stroke-opacity="0.06"/>
<path d="M226.417 177.5C223.917 176.667 219.817 173.4 223.417 167" stroke="white" stroke-opacity="0.06"/>
<line x1="223.545" y1="166.792" x2="307.545" y2="-17.2076" stroke="white" stroke-opacity="0.06"/>
<line x1="228.229" y1="178.555" x2="430.229" y2="282.555" stroke="white" stroke-opacity="0.06"/>
<line x1="226.224" y1="177.553" x2="228.224" y2="178.553" stroke="white" stroke-opacity="0.06"/>
<path d="M239.417 173.5C236.917 172.667 232.817 169.4 236.417 163" stroke="white" stroke-opacity="0.06"/>
<line x1="236.545" y1="162.792" x2="320.545" y2="-21.2076" stroke="white" stroke-opacity="0.06"/>
<line x1="241.229" y1="174.555" x2="443.229" y2="278.555" stroke="white" stroke-opacity="0.06"/>
<line x1="239.224" y1="173.553" x2="241.224" y2="174.553" stroke="white" stroke-opacity="0.06"/>
<path d="M252.417 169.5C249.917 168.667 245.817 165.4 249.417 159" stroke="white" stroke-opacity="0.06"/>
<line x1="249.545" y1="158.792" x2="333.545" y2="-25.2076" stroke="white" stroke-opacity="0.06"/>
<line x1="254.229" y1="170.555" x2="456.229" y2="274.555" stroke="white" stroke-opacity="0.06"/>
<line x1="252.224" y1="169.553" x2="254.224" y2="170.553" stroke="white" stroke-opacity="0.06"/>
<path d="M264.417 166.5C261.917 165.667 257.817 162.4 261.417 156" stroke="white" stroke-opacity="0.06"/>
<line x1="261.545" y1="155.792" x2="345.545" y2="-28.2076" stroke="white" stroke-opacity="0.06"/>
<line x1="266.229" y1="167.555" x2="468.229" y2="271.555" stroke="white" stroke-opacity="0.06"/>
<line x1="264.224" y1="166.553" x2="266.224" y2="167.553" stroke="white" stroke-opacity="0.06"/>
<path d="M277.417 162.5C274.917 161.667 270.817 158.4 274.417 152" stroke="white" stroke-opacity="0.06"/>
<line x1="274.545" y1="151.792" x2="358.545" y2="-32.2076" stroke="white" stroke-opacity="0.06"/>
<line x1="279.229" y1="163.555" x2="481.229" y2="267.555" stroke="white" stroke-opacity="0.06"/>
<line x1="277.224" y1="162.553" x2="279.224" y2="163.553" stroke="white" stroke-opacity="0.06"/>
<path d="M289.417 157.5C286.917 156.667 282.817 153.4 286.417 147" stroke="white" stroke-opacity="0.06"/>
<line x1="286.545" y1="146.792" x2="370.545" y2="-37.2076" stroke="white" stroke-opacity="0.06"/>
<line x1="291.229" y1="158.555" x2="493.229" y2="262.555" stroke="white" stroke-opacity="0.06"/>
<line x1="289.224" y1="157.553" x2="291.224" y2="158.553" stroke="white" stroke-opacity="0.06"/>
<path d="M302.417 153.5C299.917 152.667 295.817 149.4 299.417 143" stroke="white" stroke-opacity="0.06"/>
<line x1="299.545" y1="142.792" x2="383.545" y2="-41.2076" stroke="white" stroke-opacity="0.06"/>
<line x1="304.229" y1="154.555" x2="506.229" y2="258.555" stroke="white" stroke-opacity="0.06"/>
<line x1="302.224" y1="153.553" x2="304.224" y2="154.553" stroke="white" stroke-opacity="0.06"/>
<path d="M315.417 149.5C312.917 148.667 308.817 145.4 312.417 139" stroke="white" stroke-opacity="0.06"/>
<line x1="312.545" y1="138.792" x2="396.545" y2="-45.2076" stroke="white" stroke-opacity="0.06"/>
<line x1="317.229" y1="150.555" x2="519.229" y2="254.555" stroke="white" stroke-opacity="0.06"/>
<line x1="315.224" y1="149.553" x2="317.224" y2="150.553" stroke="white" stroke-opacity="0.06"/>
<path d="M327.417 146.5C324.917 145.667 320.817 142.4 324.417 136" stroke="white" stroke-opacity="0.06"/>
<line x1="324.545" y1="135.792" x2="408.545" y2="-48.2076" stroke="white" stroke-opacity="0.06"/>
<line x1="329.229" y1="147.555" x2="531.229" y2="251.555" stroke="white" stroke-opacity="0.06"/>
<line x1="327.224" y1="146.553" x2="329.224" y2="147.553" stroke="white" stroke-opacity="0.06"/>
</g>
<defs>
<clipPath id="clip0_17_3">
<rect width="448" height="407" fill="white"/>
</clipPath>
</defs>
</svg>
